{
  "accessors": [
    {
      "bufferView": 2,
      "componentType": 5126,
      "count": 65532,
      "max": [
        0.3068518042564392,
        0.3155154585838318,
        0.7884502410888672
      ],
      "min": [
        -0.38444992899894714,
        -0.4832080602645874,
        -0.9506558179855347
      ],
      "type": "VEC3"
    },
    {
      "bufferView": 2,
      "byteOffset": 786384,
      "componentType": 5126,
      "count": 65532,
      "max": [
        0.9999915957450867,
        0.9999942779541016,
        0.9999547004699707
      ],
      "min": [
        -0.9999898672103882,
        -0.9998234510421753,
        -0.9999115467071533
      ],
      "type": "VEC3"
    },
    {
      "bufferView": 1,
      "componentType": 5126,
      "count": 65532,
      "max": [
        0.9969147443771362,
        0.9970252513885498
      ],
      "min": [
        0.002974757459014654,
        0.0031438469886779785
      ],
      "type": "VEC2"
    },
    {
      "bufferView": 0,
      "componentType": 5125,
      "count": 336318,
      "type": "SCALAR"
    },
    {
      "bufferView": 2,
      "byteOffset": 1572768,
      "componentType": 5126,
      "count": 56695,
      "max": [
        0.4788060188293457,
        -0.026664555072784424,
        0.7874886989593506
      ],
      "min": [
        -0.3669683039188385,
        -0.612467885017395,
        -0.4075462520122528
      ],
      "type": "VEC3"
    },
    {
      "bufferView": 2,
      "byteOffset": 2253108,
      "componentType": 5126,
      "count": 56695,
      "max": [
        0.9999921321868896,
        0.9999051094055176,
        0.9999547004699707
      ],
      "min": [
        -0.9999906420707703,
        -0.9999810457229614,
        -0.9999692440032959
      ],
      "type": "VEC3"
    },
    {
      "bufferView": 1,
      "byteOffset": 524256,
      "componentType": 5126,
      "count": 56695,
      "max": [
        0.9969808459281921,
        0.9970252513885498
      ],
      "min": [
        0.002974757459014654,
        0.0029747486114501953
      ],
      "type": "VEC2"
    },
    {
      "bufferView": 0,
      "byteOffset": 1345272,
      "componentType": 5125,
      "count": 264918,
      "type": "SCALAR"
    }
  ],
  "asset": {
    "extras": {
      "author": "my3dworld (https://sketchfab.com/my3dworld)",
      "license": "CC-BY-4.0 (http://creativecommons.org/licenses/by/4.0/)",
      "source": "https://sketchfab.com/3d-models/guitar-harold-4-486bd8b974414815aeec81a9049c5a8a",
      "title": "guitar harold 4"
    },
    "generator": "Sketchfab-12.68.0",
    "version": "2.0"
  },
  "bufferViews": [
    {
      "buffer": 0,
      "byteLength": 2404944,
      "name": "floatBufferViews",
      "target": 34963,
      "byteOffset": 0
    },
    {
      "buffer": 0,
      "byteLength": 977816,
      "byteOffset": 2404944,
      "byteStride": 8,
      "name": "floatBufferViews",
      "target": 34962
    },
    {
      "buffer": 0,
      "byteLength": 2933448,
      "byteOffset": 3382760,
      "byteStride": 12,
      "name": "floatBufferViews",
      "target": 34962
    }
  ],
  "buffers": [
    {
      "uri": "statue_data.bin",
      "byteLength": 6316208
    }
  ],
  "extensionsUsed": [
    "KHR_materials_unlit"
  ],
  "images": [
    {
      "uri": "statue_img0.jpg"
    }
  ],
  "materials": [
    {
      "doubleSided": true,
      "extensions": {
        "KHR_materials_unlit": {}
      },
      "name": "material_0",
      "pbrMetallicRoughness": {
        "baseColorTexture": {
          "index": 0
        },
        "metallicFactor": 0
      }
    }
  ],
  "meshes": [
    {
      "name": "Object_0",
      "primitives": [
        {
          "attributes": {
            "NORMAL": 1,
            "POSITION": 0,
            "TEXCOORD_0": 2
          },
          "indices": 3,
          "material": 0,
          "mode": 4
        }
      ]
    },
    {
      "name": "Object_1",
      "primitives": [
        {
          "attributes": {
            "NORMAL": 5,
            "POSITION": 4,
            "TEXCOORD_0": 6
          },
          "indices": 7,
          "material": 0,
          "mode": 4
        }
      ]
    }
  ],
  "nodes": [
    {
      "children": [
        1
      ],
      "matrix": [
        1,
        0,
        0,
        0,
        0,
        2.220446049250313e-16,
        -1,
        0,
        0,
        1,
        2.220446049250313e-16,
        0,
        0,
        0,
        0,
        1
      ],
      "name": "Sketchfab_model"
    },
    {
      "children": [
        2,
        3
      ],
      "name": "model_mesh.obj.cleaner.gles"
    },
    {
      "mesh": 0,
      "name": "Object_2"
    },
    {
      "mesh": 1,
      "name": "Object_3"
    }
  ],
  "samplers": [
    {
      "magFilter": 9729,
      "minFilter": 9987,
      "wrapS": 10497,
      "wrapT": 10497
    }
  ],
  "scene": 0,
  "scenes": [
    {
      "name": "Sketchfab_Scene",
      "nodes": [
        0
      ]
    }
  ],
  "textures": [
    {
      "sampler": 0,
      "source": 0
    }
  ]
}